<?xml version="1.0" encoding="utf-8"?>
<!-- Generator: Adobe Illustrator 22.0.1, SVG Export Plug-In . SVG Version: 6.00 Build 0)  -->
<svg version="1.1" id="Layer_1" xmlns="http://www.w3.org/2000/svg" xmlns:xlink="http://www.w3.org/1999/xlink" x="0px" y="0px"
	 viewBox="0 0 406.1 406.1" style="enable-background:new 0 0 406.1 406.1;" xml:space="preserve">
<style type="text/css">
	.st0{fill:#FFFFFF;}
</style>
<path class="st0" d="M288.9,0H117.2C52.5,0,0,52.5,0,117.2v76.6v18.5v76.6c0,64.7,52.5,117.2,117.2,117.2h171.7
	c64.7,0,117.2-52.5,117.2-117.2V117.2C406.1,52.5,353.7,0,288.9,0z M259.4,38.4V77H141.7V38.4H259.4z M37.4,116.2
	c0-43,34.8-77.8,77.8-77.8h7.9V77v18.5h18.5h117.8H278V77V38.4h12.9c43,0,77.8,34.8,77.8,77.8v77.6h-114
	c-4.8-24.2-26.1-42.4-51.7-42.4s-46.9,18.2-51.7,42.4h-114V116.2z M237.2,204.1c0,18.9-15.3,34.2-34.2,34.2s-34.2-15.3-34.2-34.2
	c0-18.9,15.3-34.2,34.2-34.2S237.2,185.2,237.2,204.1z M141.7,369.7v-38.6h117.8v38.6H141.7z M290.9,369.7H278v-38.6v-18.5h-18.5
	H141.7h-18.5v18.5v38.6h-7.9c-43,0-77.8-34.8-77.8-77.8v-79.6H151c4,25.2,25.8,44.4,52,44.4c26.3,0,48.1-19.3,52-44.4h113.6v79.6
	C368.7,334.9,333.9,369.7,290.9,369.7z"/>
</svg>
